<svg xmlns="http://www.w3.org/2000/svg" viewBox="0 0 500 500"><g id="freepik--Sign--inject-7"><g id="freepik--Directions--inject-7"><polygon points="128.67 83.02 131.97 81.12 176.68 106.93 176.68 129.8 173.37 131.71 128.67 105.9 118.77 88.74 128.67 83.02" style="fill:#18D818"></polygon><polygon points="128.67 83.02 131.97 81.12 176.68 106.93 176.68 129.8 173.37 131.71 128.67 105.9 118.77 88.74 128.67 83.02" style="fill:#fff;opacity:0.4"></polygon><polygon points="173.37 108.83 128.67 83.02 118.77 88.74 128.67 105.9 173.37 131.71 173.37 108.83" style="fill:#18D818"></polygon><polygon points="176.68 106.93 173.37 108.83 173.37 131.71 176.68 129.8 176.68 106.93" style="fill:#18D818"></polygon><polygon points="176.68 106.93 173.37 108.83 173.37 131.71 176.68 129.8 176.68 106.93" style="opacity:0.2"></polygon><polygon points="224.68 36.56 221.38 34.65 176.68 60.46 176.68 83.33 179.98 85.24 224.68 59.43 234.58 42.28 224.68 36.56" style="fill:#18D818"></polygon><polygon points="224.68 36.56 221.38 34.65 176.68 60.46 176.68 83.33 179.98 85.24 224.68 59.43 234.58 42.28 224.68 36.56" style="fill:#fff;opacity:0.4"></polygon><polygon points="179.98 62.37 224.68 36.56 234.58 42.28 224.68 59.43 179.98 85.24 179.98 62.37" style="fill:#18D818"></polygon><polygon points="179.98 62.37 224.68 36.56 234.58 42.28 224.68 59.43 179.98 85.24 179.98 62.37" style="opacity:0.15"></polygon><polygon points="176.68 60.46 179.98 62.37 179.98 85.24 176.68 83.33 176.68 60.46" style="fill:#18D818"></polygon><polygon points="176.68 60.46 179.98 62.37 179.98 85.24 176.68 83.33 176.68 60.46" style="opacity:0.2"></polygon><path d="M191,334c-7.93-4.58-20.79-4.58-28.72,0-4,2.29-5.94,5.29-5.93,8.29v3.42c0,3,2,6,5.93,8.3,7.93,4.58,20.79,4.58,28.72,0,4-2.29,5.94-5.29,5.93-8.3,0-.57,0-2.85,0-3.42C197,339.33,195,336.33,191,334Z" style="fill:#37474f"></path><path d="M162.32,334c7.93-4.58,20.79-4.58,28.72,0s7.93,12,0,16.58-20.79,4.58-28.72,0S154.39,338.62,162.32,334Z" style="fill:#455a64"></path><path d="M180.1,47.86a3.43,3.43,0,1,0-6.85,0h0V341.54h0a1.7,1.7,0,0,0,1,1.4,5.38,5.38,0,0,0,4.85,0,1.7,1.7,0,0,0,1-1.4h0Z" style="fill:#37474f"></path><polygon points="176.68 110.02 176.68 87.15 179.98 85.24 224.68 111.05 234.58 128.2 224.68 133.92 221.38 135.83 176.68 110.02" style="fill:#18D818"></polygon><polygon points="176.68 110.02 176.68 87.15 179.98 85.24 224.68 111.05 234.58 128.2 224.68 133.92 221.38 135.83 176.68 110.02" style="fill:#fff;opacity:0.30000000000000004"></polygon><rect x="226.07" y="110.67" width="3.81" height="19.81" transform="translate(-29.75 130.14) rotate(-30)" style="fill:#18D818"></rect><rect x="226.07" y="110.67" width="3.81" height="19.81" transform="translate(-29.75 130.14) rotate(-30)" style="opacity:0.1"></rect><polygon points="176.68 87.15 221.38 112.95 231.28 130.11 221.38 135.83 176.68 110.02 176.68 87.15" style="fill:#18D818"></polygon><polygon points="176.68 156.49 176.68 133.61 173.37 131.71 128.67 157.51 118.77 174.67 128.67 180.39 131.97 182.29 176.68 156.49" style="fill:#18D818"></polygon><polygon points="176.68 156.49 176.68 133.61 173.37 131.71 128.67 157.51 118.77 174.67 128.67 180.39 131.97 182.29 176.68 156.49" style="fill:#fff;opacity:0.30000000000000004"></polygon><rect x="115.47" y="165.14" width="19.81" height="3.81" transform="translate(-81.98 192.09) rotate(-60)" style="fill:#18D818"></rect><polygon points="176.68 133.61 131.97 159.42 122.07 176.57 131.97 182.29 176.68 156.49 176.68 133.61" style="fill:#18D818"></polygon><polygon points="176.68 133.61 131.97 159.42 122.07 176.57 131.97 182.29 176.68 156.49 176.68 133.61" style="opacity:0.15"></polygon></g></g><g id="freepik--question-mark--inject-7"><g id="freepik--question-mark--inject-7"><path d="M405.92,91.62l-5.2-3-.38-.22a2.53,2.53,0,0,0-1.82-.28,4.62,4.62,0,0,0-1.52.59l-.23.14a9.58,9.58,0,0,0-3.25,3.79,11.72,11.72,0,0,0-1.44,5.48c0,1.81.48,3.09,1.45,3.82a2,2,0,0,0,.31.2l5.56,3.22h0a3,3,0,0,1-.33-.21c-1-.73-1.45-2-1.45-3.83a11.71,11.71,0,0,1,1.44-5.47,9.35,9.35,0,0,1,3.49-3.94,3.21,3.21,0,0,1,3.36-.29Z" style="fill:#18D818"></path><path d="M405.94,91.63a3.23,3.23,0,0,0-3.37.29,9.11,9.11,0,0,0-3.27,3.56l-5.58-3.22a9.23,9.23,0,0,1,3-3.41l.23-.14a4.62,4.62,0,0,1,1.52-.59,2.67,2.67,0,0,1,1.83.28l.37.22,5.19,3Z" style="opacity:0.4"></path><path d="M399.43,105.37h0l-5.56-3.22a2,2,0,0,1-.31-.2c-1-.73-1.46-2-1.46-3.82a11.62,11.62,0,0,1,1.45-5.48c.06-.13.13-.26.2-.38l5.58,3.22-.21.37a11.78,11.78,0,0,0-1.44,5.48c0,1.82.48,3.1,1.46,3.83A2.2,2.2,0,0,0,399.43,105.37Z" style="opacity:0.2"></path><path d="M403.48,44.52c2.71-1.56,5-2.23,6.91-2a5.71,5.71,0,0,1,2.21.73l-.06,0-5.48-3.17a5.72,5.72,0,0,0-2.24-.75c-1.9-.23-4.21.43-6.91,2A26.89,26.89,0,0,0,387.74,52a29.23,29.23,0,0,0-3.8,14.42l5.57,3.22a29.24,29.24,0,0,1,3.81-14.42A26.93,26.93,0,0,1,403.48,44.52Z" style="fill:#18D818"></path><path d="M393,55.81a29.09,29.09,0,0,0-3.49,13.83l-5.57-3.22a28.86,28.86,0,0,1,3.49-13.83Z" style="opacity:0.2"></path><path d="M407.27,53.64q-1.51-.8-4,.64a10,10,0,0,1-.62,2.94,61.76,61.76,0,0,1-3.69,7,46.75,46.75,0,0,0-4.57,10.54A37.36,37.36,0,0,0,392.92,85l0,1.71,3.81,2.2,1.77,1,0-1.71v-.05A37.12,37.12,0,0,1,399.91,78a47,47,0,0,1,4.58-10.53,65.25,65.25,0,0,0,3.69-7.05,10,10,0,0,0,.63-3.51C408.81,55.28,408.3,54.19,407.27,53.64Z" style="fill:#18D818"></path><path d="M407.63,61.68q-.94,2-3.14,5.8A47,47,0,0,0,399.91,78a37.17,37.17,0,0,0-1.41,10.12v.05l0,1.71-1.77-1L393,86.67l0-1.71a37.09,37.09,0,0,1,1.41-10.17,46.89,46.89,0,0,1,4.57-10.53q2.2-3.84,3.15-5.8Z" style="opacity:0.2"></path><path d="M408.81,56.92a10.08,10.08,0,0,1-.63,3.51c-.12.32-.31.74-.55,1.25l-5.57-3.22c.24-.51.42-.92.54-1.24a10,10,0,0,0,.62-2.94q2.53-1.44,4-.64C408.3,54.19,408.81,55.28,408.81,56.92Z" style="opacity:0.4"></path><path d="M397.06,65.28l-7.55,4.36a29.24,29.24,0,0,1,3.81-14.42,26.93,26.93,0,0,1,10.16-10.7c2.71-1.56,5-2.23,6.91-2A6.1,6.1,0,0,1,415,45.65a13,13,0,0,1,1.71,6.92,22,22,0,0,1-.55,4.77,36.1,36.1,0,0,1-1.72,5.49,67.35,67.35,0,0,1-3.32,6.45A61.48,61.48,0,0,0,408,75.37a21.43,21.43,0,0,0-1.07,3.94,41.5,41.5,0,0,0-.55,6.07l-7.8,4.51,0-1.71A37.48,37.48,0,0,1,399.91,78a47,47,0,0,1,4.58-10.53,65.25,65.25,0,0,0,3.69-7.05,10,10,0,0,0,.63-3.51c0-1.64-.51-2.73-1.54-3.28s-2.41-.32-4.13.68a11.64,11.64,0,0,0-4.35,4.59A13.17,13.17,0,0,0,397.06,65.28Z" style="fill:#18D818"></path><path d="M397.06,65.28l-7.55,4.36a29.24,29.24,0,0,1,3.81-14.42,26.93,26.93,0,0,1,10.16-10.7c2.71-1.56,5-2.23,6.91-2A6.1,6.1,0,0,1,415,45.65a13,13,0,0,1,1.71,6.92,22,22,0,0,1-.55,4.77,36.1,36.1,0,0,1-1.72,5.49,67.35,67.35,0,0,1-3.32,6.45A61.48,61.48,0,0,0,408,75.37a21.43,21.43,0,0,0-1.07,3.94,41.5,41.5,0,0,0-.55,6.07l-7.8,4.51,0-1.71A37.48,37.48,0,0,1,399.91,78a47,47,0,0,1,4.58-10.53,65.25,65.25,0,0,0,3.69-7.05,10,10,0,0,0,.63-3.51c0-1.64-.51-2.73-1.54-3.28s-2.41-.32-4.13.68a11.64,11.64,0,0,0-4.35,4.59A13.17,13.17,0,0,0,397.06,65.28Z" style="fill:#fff;opacity:0.30000000000000004"></path><path d="M402.56,91.94c1.4-.81,2.6-.86,3.59-.15s1.48,2,1.48,3.79a11.73,11.73,0,0,1-1.47,5.51,9.6,9.6,0,0,1-3.54,4c-1.38.79-2.56.83-3.53.09s-1.45-2-1.45-3.82a11.75,11.75,0,0,1,1.44-5.48A9.43,9.43,0,0,1,402.56,91.94Z" style="fill:#18D818"></path><path d="M402.56,91.94c1.4-.81,2.6-.86,3.59-.15s1.48,2,1.48,3.79a11.73,11.73,0,0,1-1.47,5.51,9.6,9.6,0,0,1-3.54,4c-1.38.79-2.56.83-3.53.09s-1.45-2-1.45-3.82a11.75,11.75,0,0,1,1.44-5.48A9.43,9.43,0,0,1,402.56,91.94Z" style="fill:#fff;opacity:0.30000000000000004"></path></g></g><g id="freepik--Character--inject-7"><g id="freepik--character--inject-7"><g id="freepik--Bottom--inject-7"><path d="M432.43,405.92c0,1.61.3,2.23-1.67,3.69s-6.25,2.12-9.5,1.24a8.74,8.74,0,0,1-5.25-3.17,42.94,42.94,0,0,1-3.05-4.59c-.57-.73-3.22-2.12-5.77-3.25s-7.83-3.57-9.68-7.93a10.39,10.39,0,0,1-.57-7.48Z" style="fill:#263238"></path><path d="M415.26,383.79c5.21,3.4,9.58,11.94,16.7,9.34.35,4.18,1.46,8.68.47,12.79-3,3.75-9.68,4.47-13.5,1.77-1.92-1.64-3-3.56-4.86-5.3a18.69,18.69,0,0,0-5.12-3.11,55.69,55.69,0,0,1-6.19-3.43C391.26,387.37,397,371.84,415.26,383.79Z" style="fill:#37474f"></path><path d="M396.92,430.26c0,1.74-.12,3.06-1.18,3.8s-9.05,2.05-11.17,2.29-2.43-1.15-3.92-.65-4.95,3-10.15,4.18-9.46,2.38-16.68,0-7.93-5.17-7.83-7.62S396.92,430.26,396.92,430.26Z" style="fill:#263238"></path><path d="M395.88,414c1.16,5,2.39,12.49,1,16.29-1.45,1.44-6.33,2.29-10.58,2.86a32.63,32.63,0,0,0-11.25,3.51c-8.26,3.44-22.77,4.69-28.55-3.07-5.77-10.37,24.27-7.82,28-19.82C375.84,409.37,390.42,415.15,395.88,414Z" style="fill:#37474f"></path><path d="M434.12,348.26A41.23,41.23,0,0,0,431.49,334c0-44.09,0-67.92-1.29-95.5,0,0-58.77-6.24-60.24,14.1s-1.09,78-.62,86.93c.22,9.07,4.74,69.2,4.74,75.6,14.88,7.38,22.22,1.05,22.22,1.05-.42-21.61,4-47,1.51-59.85l4.35-42.68s10.21,66.31,11.93,82.82c4.39,6.51,16,2.78,18.06-1.15C433.05,380,434.2,369.5,434.12,348.26Z" style="fill:#455a64"></path><path d="M402.16,313.6l3.13-26.72S415.45,283,422,274.79c-.26,5.65-6.85,11.36-12.75,14.37l-4.46,23,1.86,30.91Z" style="fill:#37474f"></path></g><g id="freepik--Top--inject-7"><path d="M424.16,172.65c10.5,2.13,11.88,4,16.13,11.38s14.55,25.69,16.35,30.6,3.82,7.89-3.39,15.9c-5.94,6.6-22.71,24.46-22.71,24.46l-9-12.69,13-20.62L422,199.51Z" style="fill:#455a64"></path><path d="M434.58,221.68c2.39,3.69,6.15,5.94,8,6.1-3.47,0-6.8-.65-9.22-4.13Z" style="fill:#37474f"></path><polygon points="392.02 164.47 392.39 174.89 412.38 173.32 411.4 155.95 392.02 164.47" style="fill:#ffa8a7"></polygon><path d="M380.94,140.87s-5.7,7.61-5.15,8.42,4.35,1.75,4.35,1.75Z" style="fill:#f28f8f"></path><path d="M394.39,123.41c-9.19,1.37-14.14,4.12-14,18.52,0,3.68-1.36,6.2-1.45,10.36-.15,8,1.56,11,3,12.67,1.25,1.45,8.49,1.53,12.3.72,4.76-1,15.75-3.51,21.17-10.79,6.37-8.56,8.63-20.55,2.68-25.88C409.71,121.5,398.13,122.86,394.39,123.41Z" style="fill:#ffa8a7"></path><path d="M392.08,166l-.27-3.18s-4.53,3.25-9.27,2.57C384.16,166.32,388.49,166.43,392.08,166Z" style="fill:#f28f8f"></path><path d="M381.85,129.36c-.2,3.23,3.29,5,5.69,5.38a4.4,4.4,0,0,0,2.15-.16c-.06,2.19,1.05,3.44,1.53,4.38.8,1.57-.55,2.37-.72,5-.07,1.15,1.32,2.48,2.37.75s3.35-5.14,6.41-4.5c4.68,1,5,7,1.76,10.53s-5.84,1.93-5.88,1.91c0,1,.11,6.21,4.53,9.07,2.71,1.76,7.6,3.47,11.81,2,2.81-1.11,4.8-4.27,7.6-8.56a54.13,54.13,0,0,0,5.34-11.62c1.42-4.64,1.62-6.92.71-10.36a8.58,8.58,0,0,0-6.21-6.3c-.26-3.31-1.59-6-5.49-8.59-7.13-4.76-16.93-2.19-22.29-.61-3,.88-6.5,2.63-9.51,3.47a11.47,11.47,0,0,1-3.41.28c-.32,0-1.49-.29-1.76-.09s-.15,1.33-.12,1.7A7.1,7.1,0,0,0,381.85,129.36Z" style="fill:#263238"></path><path d="M424.86,172.79c-6.5-1.37-10.63-2.55-10.63-2.55-.7,3-14.35,5.8-22.21,4-2.35.64-16.81,6.66-17.47,7.09,0,0-3.47,10.52-4.42,30.94s-1.21,60.92-1.21,60.92c12.29,9.1,59,3,62.44-16.72a178.08,178.08,0,0,1-.47-23.18,237.68,237.68,0,0,1,2.63-25c1.54-8.87,2-15.51,1.26-20.59C433.94,182,430.59,174,424.86,172.79Z" style="fill:#37474f"></path><path d="M375.38,184.38c-3.19.52-9.91.83-14.54,8.25-4.27,6.82-20.7,31.92-23.62,38.11-1.88,4-3.34,7.28.66,12.15,2.55,3.11,25.55,22.39,26.42,23.9,1.4,2.43,1.27,10.53,1.56,11.55a10.65,10.65,0,0,0,3.16,5.05l.06-4.32a24.62,24.62,0,0,1,5-7.16c2.65-2.85,3.21-7.17,2.8-10.37-.22-1.76-2.15-2.66-3.68-4.5-6.57-7.92-15.93-18.53-15.93-18.53l20-30C379.65,205.56,383.31,195.9,375.38,184.38Z" style="fill:#ffa8a7"></path><path d="M370.74,253.08c.22,5.69-6.93,11.35-10.88,11.72,0,0-19.28-16.21-23.47-21.09s-2.77-7.64-.09-13.56c4.29-9.46,18.75-31.93,22.13-37.42,4.2-6.8,9.23-8.35,17.61-12,4.94,2.81,10.82,15.95,3.52,30l-20.88,27.63Z" style="fill:#455a64"></path><path d="M358.68,238.36c-2.49,3.7-7.55,5.4-7.55,5.4s6.65-.49,9.08-3.47Z" style="fill:#37474f"></path><path d="M391.37,172.85l.54-3a119.47,119.47,0,0,0,12.78-.44c6.67-.78,8.76-3,8.76-3l1.25,2.73S408.42,176,391.37,172.85Z" style="fill:#ebebeb"></path><path d="M383,177.78c4.13-3.05,6-5.95,8.86-5.89,3.71.07,12.55.11,17-1s5.5-2.74,5.5-2.74l3.75,3.12s.94,4.88-9.1,7C398.19,180.61,392.21,176.64,383,177.78Z" style="fill:#455a64"></path></g></g></g></svg>