<svg xmlns="http://www.w3.org/2000/svg" xmlns:xlink="http://www.w3.org/1999/xlink" viewBox="0 0 500 500"><defs><clipPath id="freepik--clip-path--inject-1--inject-4"><path d="M227.3,334.35l10.63,6.14c.8.46.7,1.26-.22,1.79l-14.8,8.64a3.46,3.46,0,0,1-3.11.13l-10.63-6.14c-.8-.46-.7-1.26.22-1.79,4.06-2.35,10.74-6.3,14.8-8.64A3.43,3.43,0,0,1,227.3,334.35Z" style="fill:#18D818"></path></clipPath></defs><!--Make it Rain--><g id="freepik--Bills--inject-1--inject-4"><g id="freepik--Money--inject-1--inject-4"><path d="M322.41,247c10.11-15.8-3.14-20.3,7-36.09l16-2.42c-11.25,12.4,1.22,19.72-9.62,32.4Z" style="fill:#18D818"></path><path d="M322.41,247c10.11-15.8-3.14-20.3,7-36.09l16-2.42c-11.25,12.4,1.22,19.72-9.62,32.4Z" style="opacity:0.1"></path><path d="M327.45,241c2.84-10.05-2-15.12.86-25.17a8.18,8.18,0,0,0,2.7-2.32l8.37-1.44a1.43,1.43,0,0,0-.09,1.09.81.81,0,0,0,.68.5c-5.25,10.52,2.21,13-3,23.51a4.35,4.35,0,0,0-2.55,2.43l-6.59,2.84a1.71,1.71,0,0,0,.18-1.06.5.5,0,0,0-.53-.38m-.89.95c.81-.34,1,.32.22,1.56l7.94-3.49A3.83,3.83,0,0,1,337,237.6c6.17-11.17-2.17-13.57,4-24.75-1,.18-1.3-.56-.49-1.72L331,212.72a5.69,5.69,0,0,1-3,2.5c-3.47,10.84,2.07,15.85-1.4,26.7Z" style="opacity:0.30000000000000004"></path><g style="opacity:0.30000000000000004"><path d="M337.63,225.56a5.9,5.9,0,0,1-3.83,5.87c-2.32.78-4.44-.74-4.95-3.32a5.21,5.21,0,0,1,3.83-5.88A3.85,3.85,0,0,1,337.63,225.56Zm-7.95,2.3a3.14,3.14,0,0,0,4.06,2.69,4.67,4.67,0,0,0,3.06-4.75,3.15,3.15,0,0,0-4.06-2.68A4.21,4.21,0,0,0,329.68,227.86Z"></path></g><path d="M249.93,311.47c18.4-3.63,12.47-16.31,30.87-20l12.82,9.88c-16.73.46-13.38,14.53-30,15.49Z" style="fill:#18D818"></path><path d="M249.93,311.47c18.4-3.63,12.47-16.31,30.87-20l12.82,9.88c-16.73.46-13.38,14.53-30,15.49Z" style="opacity:0.07"></path><path d="M257.77,310.94C267,306,267.32,299,276.54,294.13a8.08,8.08,0,0,0,3.53.33l6.84,5.05a1.46,1.46,0,0,0-.85.69.82.82,0,0,0,.11.83c-11.22,3.51-7.83,10.59-19.06,14.09a4.42,4.42,0,0,0-3.52-.15L257,312.18a1.6,1.6,0,0,0,.88-.6.48.48,0,0,0-.09-.64m-1.29,0c.8.35.47,1-1,1.24l8,3.32a3.82,3.82,0,0,1,3.29,0c12.34-3.28,8.29-11,20.63-14.25-.8-.57-.49-1.32.9-1.54l-7.76-5.79a5.63,5.63,0,0,1-3.87-.43c-10.23,5-10,12.47-20.23,17.48Z" style="opacity:0.30000000000000004"></path><g style="opacity:0.30000000000000004"><path d="M276,307.61a5.91,5.91,0,0,1-6.9,1.3c-2.16-1.13-2.53-3.71-1-5.88a5.21,5.21,0,0,1,6.89-1.3A3.86,3.86,0,0,1,276,307.61Zm-7.17-4.14a3.14,3.14,0,0,0,.87,4.79,4.67,4.67,0,0,0,5.55-1.09,3.15,3.15,0,0,0-.88-4.78A4.21,4.21,0,0,0,268.78,303.47Z"></path></g><path d="M360.62,175.28c-18.26,4.26-11.9,16.73-30.17,21l-13.15-9.43c16.71-1,12.88-15,29.49-16.5Z" style="fill:#18D818"></path><path d="M352.8,176.09c-9.05,5.22-9.13,12.22-18.18,17.44a8,8,0,0,0-3.54-.22l-7-4.8a1.55,1.55,0,0,0,.83-.72.84.84,0,0,0-.14-.84c11.1-3.88,7.47-10.85,18.57-14.73a4.39,4.39,0,0,0,3.52,0l6.7,2.55a1.72,1.72,0,0,0-.86.64.5.5,0,0,0,.11.64m1.3-.06c-.82-.32-.51-.95.93-1.27l-8.12-3a3.85,3.85,0,0,1-3.3.13c-12.21,3.7-7.91,11.24-20.12,15,.81.55.53,1.3-.85,1.57l7.94,5.52a5.71,5.71,0,0,1,3.89.3c10-5.35,9.58-12.81,19.63-18.16Z" style="opacity:0.30000000000000004"></path><g style="opacity:0.30000000000000004"><path d="M334.75,180a5.9,5.9,0,0,1,6.85-1.53c2.2,1.05,2.66,3.62,1.23,5.83a5.21,5.21,0,0,1-6.85,1.54A3.86,3.86,0,0,1,334.75,180Zm7.31,3.9a3.14,3.14,0,0,0-1-4.76,4.66,4.66,0,0,0-5.5,1.27,3.15,3.15,0,0,0,1,4.76A4.22,4.22,0,0,0,342.06,183.93Z"></path></g><path d="M317.48,237c-18.26,4.26-11.9,16.73-30.17,21l-13.15-9.43c16.71-1,12.88-15,29.49-16.5Z" style="fill:#18D818"></path><path d="M309.66,237.83c-9.05,5.22-9.13,12.22-18.18,17.44a8,8,0,0,0-3.54-.22l-7-4.81a1.54,1.54,0,0,0,.83-.71.84.84,0,0,0-.14-.84c11.1-3.88,7.47-10.85,18.57-14.73a4.39,4.39,0,0,0,3.52,0l6.7,2.55a1.72,1.72,0,0,0-.86.64.5.5,0,0,0,.11.64m1.3-.06c-.82-.32-.51-1,.93-1.27l-8.12-3a3.85,3.85,0,0,1-3.3.13c-12.21,3.7-7.91,11.24-20.12,14.95.81.55.53,1.3-.85,1.57l7.94,5.52a5.65,5.65,0,0,1,3.89.3c10.05-5.35,9.58-12.81,19.63-18.16Z" style="opacity:0.30000000000000004"></path><g style="opacity:0.30000000000000004"><path d="M291.61,241.77a5.9,5.9,0,0,1,6.85-1.53c2.2,1,2.66,3.62,1.23,5.83a5.21,5.21,0,0,1-6.85,1.54A3.86,3.86,0,0,1,291.61,241.77Zm7.31,3.9a3.14,3.14,0,0,0-1-4.76,4.66,4.66,0,0,0-5.5,1.27,3.14,3.14,0,0,0,1,4.75A4.21,4.21,0,0,0,298.92,245.67Z"></path></g><path d="M318.93,325.2c-17.91-5.56-18.73,8.41-36.64,2.85l-6.58-14.79c14.94,7.56,18.69-6.41,33.79.68Z" style="fill:#18D818"></path><path d="M318.93,325.2c-17.91-5.56-18.73,8.41-36.64,2.85l-6.58-14.79c14.94,7.56,18.69-6.41,33.79.68Z" style="opacity:0.1"></path><path d="M311.78,321.94c-10.45-.07-14.06,5.92-24.51,5.85a8.07,8.07,0,0,0-2.95-2l-3.61-7.69a1.48,1.48,0,0,0,1.08-.2.81.81,0,0,0,.3-.79c11.54,2.26,11.93-5.58,23.47-3.32a4.36,4.36,0,0,0,3,1.81l4.49,5.6a1.65,1.65,0,0,0-1.07.11.5.5,0,0,0-.22.61m1.15.61c-.55-.69,0-1.08,1.44-.63l-5.47-6.73a3.85,3.85,0,0,1-2.91-1.55c-12.41-3-12.5,5.7-24.92,2.71.43.89-.2,1.4-1.53.93l4.07,8.78a5.66,5.66,0,0,1,3.2,2.23c11.38.47,14.74-6.21,26.12-5.74Z" style="opacity:0.30000000000000004"></path><g style="opacity:0.30000000000000004"><path d="M294.21,316.22a5.89,5.89,0,0,1,6.68,2.13c1.37,2,.47,4.47-1.89,5.66a5.21,5.21,0,0,1-6.68-2.14A3.84,3.84,0,0,1,294.21,316.22Zm4.34,7a3.14,3.14,0,0,0,1.5-4.63,4.65,4.65,0,0,0-5.38-1.69,3.15,3.15,0,0,0-1.51,4.63A4.21,4.21,0,0,0,298.55,323.27Z"></path></g><path d="M309.74,152.82c-18-5.15-18.54,8.84-36.58,3.7-2.76-5.86-4.15-8.78-6.91-14.63,15.11,7.21,18.53-6.85,33.79-.11Z" style="fill:#18D818"></path><path d="M302.51,149.72c-10.45.17-13.92,6.25-24.36,6.42a8.34,8.34,0,0,0-3-1.91c-1.51-3-2.27-4.56-3.79-7.6a1.48,1.48,0,0,0,1.07-.23.82.82,0,0,0,.29-.79c11.58,2,11.79-5.86,23.38-3.87a4.44,4.44,0,0,0,3.06,1.75c2,2.32,2.67,3.16,4.62,5.49a1.65,1.65,0,0,0-1.06.13.49.49,0,0,0-.21.61m1.16.59c-.56-.68,0-1.08,1.43-.67l-5.62-6.6a3.82,3.82,0,0,1-3-1.48c-12.48-2.7-12.37,6-24.85,3.29.45.88-.17,1.4-1.51,1l4.27,8.68a5.62,5.62,0,0,1,3.25,2.15c11.39.2,14.59-6.55,26-6.34Z" style="opacity:0.30000000000000004"></path><g style="opacity:0.30000000000000004"><path d="M284.81,144.41a5.89,5.89,0,0,1,6.73,2c1.42,2,.57,4.46-1.76,5.7a5.21,5.21,0,0,1-6.73-2A3.85,3.85,0,0,1,284.81,144.41Zm4.5,7a3.14,3.14,0,0,0,1.4-4.66,4.66,4.66,0,0,0-5.43-1.56,3.14,3.14,0,0,0-1.39,4.66A4.2,4.2,0,0,0,289.31,151.36Z"></path></g><path d="M265,304.53c-18-5.14-18.53,8.85-36.57,3.7l-6.91-14.63c15.11,7.21,18.53-6.84,33.79-.11Z" style="fill:#18D818"></path><path d="M257.79,301.44c-10.45.17-13.92,6.25-24.37,6.42a8,8,0,0,0-3-1.91c-1.52-3.05-2.27-4.57-3.79-7.61a1.49,1.49,0,0,0,1.07-.22.81.81,0,0,0,.28-.8c11.59,2,11.8-5.86,23.39-3.86a4.37,4.37,0,0,0,3.06,1.74l4.62,5.49a1.64,1.64,0,0,0-1.06.14.49.49,0,0,0-.21.61M259,302c-.56-.68,0-1.08,1.43-.66l-5.63-6.6a3.82,3.82,0,0,1-2.94-1.49c-12.48-2.69-12.37,6-24.85,3.3.45.87-.17,1.4-1.51,1l4.27,8.68a5.63,5.63,0,0,1,3.25,2.16c11.39.2,14.59-6.55,26-6.35Z" style="opacity:0.30000000000000004"></path><g style="opacity:0.30000000000000004"><path d="M240.09,296.13a5.87,5.87,0,0,1,6.73,2c1.41,2,.57,4.46-1.76,5.69a5.21,5.21,0,0,1-6.73-2A3.84,3.84,0,0,1,240.09,296.13Zm4.5,6.95a3.14,3.14,0,0,0,1.4-4.66,4.66,4.66,0,0,0-5.43-1.57,3.15,3.15,0,0,0-1.4,4.66A4.22,4.22,0,0,0,244.59,303.08Z"></path></g><path d="M312.3,179.65c-19.17,4.67-10,17.46-29.17,22.13l-15.85-10.17c17.48-2.85,11.7-14.5,29.18-17.35Z" style="fill:#18D818"></path><path d="M312.3,179.65c-19.17,4.67-10,17.46-29.17,22.13l-15.85-10.17c17.48-2.85,11.7-14.5,29.18-17.35Z" style="opacity:0.07"></path><g style="opacity:0.30000000000000004"><path d="M304.1,180.85c-9.17,5.36-8.81,12.35-18,17.71a9.65,9.65,0,0,0-3.63-.32L274.86,193a1.34,1.34,0,0,0,.7-.74,1,1,0,0,0-.16-.87c11.25-3.84,7-11.17,18.23-15a13.44,13.44,0,0,0,3.55,0l7.55,3.07a1.45,1.45,0,0,0-.75.64.64.64,0,0,0,.12.68m1.81,0c-.91-.38-.63-1,.87-1.35l-9-3.59a8.76,8.76,0,0,1-4.08-.13c-12.77,3.55-7.32,11.79-20.09,15.35.92.62.68,1.43-.77,1.67l9,6.24a6.14,6.14,0,0,1,4.19.46c10.55-5.54,9.34-13.12,19.89-18.65Z"></path></g><g style="opacity:0.30000000000000004"><path d="M293.63,188.71c-1,1.86-3.65,2.41-5.8,1.28s-2.94-3.37-1.88-5.05,3.72-2.23,5.81-1.28a3.61,3.61,0,0,1,1.87,5.05m.9.44a4.4,4.4,0,0,0-2.25-6.2c-2.57-1.14-5.91-.5-7.23,1.55s-.4,4.78,2.26,6.2,6,.78,7.22-1.55Z"></path></g><path d="M277.24,306.41c8.59-7.91,25.8-7.53,34.39-15.44l11.47,6.62c-5,9-21.78,10.9-26.75,19.86Z" style="fill:#18D818"></path><g style="opacity:0.30000000000000004"><path d="M283.18,305.16c8.36-5.55,18.72-4.75,27.07-10.31a4,4,0,0,0,2.54-.29l6.07,3.5a2.28,2.28,0,0,0-.17,1,1.62,1.62,0,0,0,.32.87c-6.78,6.46-16.36,6.12-23.14,12.58a4.26,4.26,0,0,0-2.9.09l-9.27-5.36a1.83,1.83,0,0,0,.06-1,2.3,2.3,0,0,0-.58-1M281.5,305c1.11.64,1.34,1.64.68,2.32l11.13,6.43c.53-.76,2-.8,3.08-.16,6.56-7.25,17.28-6.58,23.83-13.83a1.37,1.37,0,0,1-.26-2.09l-7.08-4.08a2.41,2.41,0,0,1-2.68.39c-8.59,4.86-20.1,6.16-28.7,11Z"></path></g><g style="opacity:0.30000000000000004"><path d="M298.37,301c2.69-.8,6.39-.59,8.31.52s1.55,2.81-.89,3.76a10.86,10.86,0,0,1-8.31-.51c-2.16-1.25-1.8-3,.89-3.77m-.86-.5c-3.36,1-3.77,3.11-1.06,4.67a13,13,0,0,0,10.2.61c3-1.19,3.4-3.32,1.06-4.66s-6.85-1.59-10.2-.62Z"></path></g></g></g><g id="freepik--Character--inject-1--inject-4"><g id="freepik--Characters--inject-1--inject-4"><path d="M368.77,131.56c3.09-1.21,6.2-13.91,6.2-13.91L362.09,113l-1.5,5A29.2,29.2,0,0,0,368.77,131.56Z" style="fill:#9e5d55"></path><path d="M385,79.43s-7.78-1.2-12.76,3.22-11.66,33.89-11.66,33.89,6.75,7.9,14.92,5.58S385,79.43,385,79.43Z" style="fill:#37474f"></path><polygon points="420.63 299.82 409.01 299.82 407.47 279.25 420.63 281.3 420.63 299.82" style="fill:#87423a"></polygon><polygon points="380.43 288.31 367.69 288.75 367.49 266.88 382.27 266.01 380.43 288.31" style="fill:#87423a"></polygon><path d="M420.63,154.06c1.45,13.51-.65,68.33-.65,68.33.24,2.84,3,7.87,3.18,18.08.31,14.8-2.53,48.56-2.53,48.56a18,18,0,0,1-12.5-.32s-6.52-47.66-8.37-62.31c-1.61-12.79-6.22-46.24-6.22-46.24l-7,43.45a72.66,72.66,0,0,1,.58,15.73c-.49,6.77-5.62,39-5.62,39a24.6,24.6,0,0,1-14.12,0s-.71-50.89-.83-57.11c-.14-7.09,1.66-68.48,1.66-68.48Z" style="fill:#37474f"></path><path d="M393.54,180.16s-9.19-3-15.31-8.91c0,0,2.77,5.19,11,10l-2,38.09Z" style="fill:#263238"></path><path d="M394.9,321.45c-.39.36-.27,2.86.15,3.53s3.1,3,7.86,3.31c4.55.32,8.62-.29,11.29-2s4-3.57,4.22-6.16,0-5.09,1.2-7.09c1.14-1.84,3-3.92,3.35-4.92.87-2.17,0-5.28,0-5.28Z" style="fill:#37474f"></path><path d="M407.36,298.81a10.17,10.17,0,0,1-.53,2.89,26.19,26.19,0,0,1-2.79,5.7,22.78,22.78,0,0,1-1.9,2.68c-1.37,1.64-3.08,3-4.54,4.56a9.25,9.25,0,0,0-2.81,5.58c-.19,3.57,3.68,4.79,6.66,5.32a21.78,21.78,0,0,0,9.7-.49,8.89,8.89,0,0,0,6.53-7.11c.16-1,.1-2,.22-3a14.06,14.06,0,0,1,2.78-6.24,19.16,19.16,0,0,0,2.13-3.4c.93-2.21.18-4.7-.41-6.9-.52-1.9-1.1-4.05-1.77-3.87,0,1,0,1.08-.7,1.75-.9.85-.94,2.12-1.88,2.87a13.11,13.11,0,0,0,.66-2.54,1.41,1.41,0,0,0-.2-1,2.6,2.6,0,0,0-1.09-.59,22.94,22.94,0,0,0-4.34-1,13.06,13.06,0,0,0-4.23,0,1.85,1.85,0,0,0-1.06.62,2.06,2.06,0,0,0-.38,1.22C407.34,296.39,407.39,297.86,407.36,298.81Z" style="fill:#455a64"></path><path d="M403.56,308.15c1.33-1,4.31-1,5.94-.83a9.92,9.92,0,0,1,4.63,1.62,1,1,0,0,0,1.36-.11h0a1,1,0,0,0-.1-1.51,10,10,0,0,0-5.21-1.93c-4-.29-5.18.4-5.18.4S403.17,307,403.56,308.15Z" style="fill:#f5f5f5"></path><path d="M400.5,311.81c1.68-1,4.95-.85,6.58-.67a9.26,9.26,0,0,1,4.5,1.71,1.06,1.06,0,0,0,1.37-.11h0a1,1,0,0,0-.1-1.51,10.4,10.4,0,0,0-5.33-2.09c-4-.28-5,.54-5,.54A3.31,3.31,0,0,0,400.5,311.81Z" style="fill:#f5f5f5"></path><path d="M411.78,301.55a9.89,9.89,0,0,0-5,.42c-.71.4-1.17,1.51-.72,1.8a9.28,9.28,0,0,1,4.47-.62,13.44,13.44,0,0,1,4.33,1.19c.35.16.75.37,1.11.57a1,1,0,0,0,1.32-.41h0a.9.9,0,0,0-.35-1.15A12.77,12.77,0,0,0,411.78,301.55Z" style="fill:#f5f5f5"></path><path d="M342.72,303.61a4.24,4.24,0,0,0,.18,3.17c.44.93,5.3,3.67,11.85,3.23a27.32,27.32,0,0,0,13.55-4.73c2.49-1.66,5.09-2,8.34-2.15s7.5-1.81,8.21-3.32-.1-4.13-.1-4.13Z" style="fill:#37474f"></path><path d="M369.16,283.16l-.52-.11a2.13,2.13,0,0,0-.87,0,1.61,1.61,0,0,0-.8.54,16.32,16.32,0,0,0-1.68,2.63c-1.37,2.24-4.25,4.09-7.4,5.79-2.14,1.15-4.24,2-6.45,3s-5.25,1.64-7,2.83c-2.57,1.73-2.9,6.08,0,7.8,2.52,1.48,9.17,3.09,16.15,1.12,3.79-1.08,8-5.14,13-5.53,3.17-.25,9.16-1.14,11.2-3.54.76-1.07-.25-4.46-1.08-7.38-.9-3.19-1.76-8.17-2.82-7.89a1.46,1.46,0,0,1-.55,1.2c-.39.4-.92.66-1.34,1a8.38,8.38,0,0,0-1.75,2.52,1.9,1.9,0,0,1-.91,1c-.53.2-.93-.14-1.4-.35a2.74,2.74,0,0,0-1.89-.14,11.81,11.81,0,0,1,.33-1.87,1.13,1.13,0,0,0,.05-.6,1,1,0,0,0-.41-.46A10,10,0,0,0,369.16,283.16Z" style="fill:#455a64"></path><path d="M360.85,290.24a2.93,2.93,0,0,1,2.34-1.56c1.44-.27,4,.79,5.57,2.1a1.18,1.18,0,0,1-.17,2h0a1.18,1.18,0,0,1-1.35-.15A9,9,0,0,0,360.85,290.24Z" style="fill:#f5f5f5"></path><path d="M356.38,292.75a3.37,3.37,0,0,1,2.77-1.43s3.77.11,6.1,2.28a1.16,1.16,0,0,1-.16,1.89h0a1.14,1.14,0,0,1-1.3-.15A9.05,9.05,0,0,0,356.38,292.75Z" style="fill:#f5f5f5"></path><path d="M351.44,295a3.79,3.79,0,0,1,2.88-1.29,10.1,10.1,0,0,1,5.84,2.31,1.15,1.15,0,0,1-.16,1.89h0a1.14,1.14,0,0,1-1.3-.15A8.66,8.66,0,0,0,351.44,295Z" style="fill:#f5f5f5"></path><path d="M401.42,79.75c2.19.53,7,.88,12.12,2.72,2.8,1,3.39,4.17,4,6.79,1.91,8.4,2.24,26,2.24,26l2.32,52.3c-7.1,5.17-40.29,8.17-55.23-2.74,0,0,3.62-60.51,3.62-68.11S374.69,80,386.35,79.31Z" style="fill:#18D818"></path><g style="opacity:0.30000000000000004"><path d="M401.42,79.75c2.19.53,7,.88,12.12,2.72,2.8,1,3.39,4.17,4,6.79,1.91,8.4,2.24,26,2.24,26l2.32,52.3c-7.1,5.17-40.29,8.17-55.23-2.74,0,0,3.62-60.51,3.62-68.11S374.69,80,386.35,79.31Z"></path></g><path d="M410.47,43.64a5.05,5.05,0,0,0-2.67-1.42l3.47-1.86a2.79,2.79,0,0,0-3.83-1.27,3,3,0,0,0-1.29,3.82s-15.3-9.25-20.81-9.25c-7.56,0-14.92,2.57-12.38,13.37,1.74,7.36,4.82,14,12.38,14,5.94,0,17.82,10.38,17.82,10.38a4.74,4.74,0,0,0,2.73-2.2c.89-1.71,3.11-12.13,3.11-12.13h0C411.27,51.35,412.29,45.51,410.47,43.64Z" style="fill:#263238"></path><path d="M403.57,57.56c.84.5,2-1.11,3.06-2.19s4.41-2.56,6.09,1-1.48,8.38-4.14,9.22c-4.57,1.43-5.26-1.5-5.26-1.5l-.34,17h0a12.86,12.86,0,0,1-12.1,4.67c-3.05-.54-5.72-2.23-2.8-5.62l0-5a29,29,0,0,1-6.17.32c-3.37-.52-5.48-3.18-6.5-6.82-1.64-5.85-2.27-10.57-.87-22.08,1.52-12.61,16.19-12.74,24.11-7.75S403.57,57.56,403.57,57.56Z" style="fill:#9e5d55"></path><path d="M399,52.93c0-2.14-2.58-2.67-7.77-2.64-3.12,0-16.59,0-16.59,0h0c-4.12.29-4.68,1.57-4.56,4,.21,4.2.84,6.86,5.44,6.83,3.1,0,5.83-1.65,5.81-5.22V54.79a1.48,1.48,0,0,1,1.48-1.48h0a1.49,1.49,0,0,1,1.49,1.48v1a5.84,5.84,0,0,0,.46,2.36c.82,2.12,3.51,5.43,8.83,4.13S399,55.82,399,52.93Z" style="fill:#18D818"></path><path d="M399,52.93c0-2.14-2.58-2.67-7.77-2.64-3.12,0-16.59,0-16.59,0h0c-4.12.29-4.68,1.57-4.56,4,.21,4.2.84,6.86,5.44,6.83,3.1,0,5.83-1.65,5.81-5.22V54.79a1.48,1.48,0,0,1,1.48-1.48h0a1.49,1.49,0,0,1,1.49,1.48v1a5.84,5.84,0,0,0,.46,2.36c.82,2.12,3.51,5.43,8.83,4.13S399,55.82,399,52.93Z" style="opacity:0.7000000000000001"></path><path d="M374.8,40.92c2.76,2.24,4.56,3.44,9.91,3.63a23.88,23.88,0,0,0,10.61-2.08,7,7,0,0,0,1.58,3.46,10.44,10.44,0,0,0,3.75,2.46c.29,2.27.28,5.18.42,7.47,0,.77,0,4.78,1.87,3.63a8.94,8.94,0,0,0,1.59-1.78,26,26,0,0,1,2.1-2.34c1.45-1.31-.41-13.22-.41-13.22a5.79,5.79,0,0,0-1-6.43c-2-2.18-4.74-4.84-13.72-3.77-6.4.75-13.37,2.75-19,0C371.72,35.16,372.82,39.31,374.8,40.92Z" style="fill:#263238"></path><path d="M388.1,75.12s7.51-1.51,10.13-2.91a8.57,8.57,0,0,0,3.63-3.59,11.83,11.83,0,0,1-2.06,4.24c-1.92,2.45-11.7,4.26-11.7,4.26Z" style="fill:#87423a"></path><path d="M391,47.74l3.55,1.36a2,2,0,0,0-1.13-2.52A1.85,1.85,0,0,0,391,47.74Z" style="fill:#263238"></path><path d="M389.1,65.49,385,67a2.15,2.15,0,0,0,2.78,1.36A2.28,2.28,0,0,0,389.1,65.49Z" style="fill:#87423a"></path><path d="M375.16,49.14l3.51-1.53a1.85,1.85,0,0,0-2.46-1A2,2,0,0,0,375.16,49.14Z" style="fill:#263238"></path><polygon points="383.09 54.43 382.56 64.24 377.43 62.49 383.09 54.43" style="fill:#87423a"></polygon><path d="M390.8,109.39a5.81,5.81,0,0,1-2.05-.38c-3.94-1.5-6.12-7.17-5.69-14.8.78-13.83,3.24-14.94,4-15.42l1.08-.52v1.1h0A3.58,3.58,0,0,0,386.46,81c-.82,1.63-1.95,5.28-2.4,13.29-.41,7.17,1.53,12.46,5.05,13.81,2.59,1,5.65-.42,8.39-3.87,5.67-7.11,7.62-18.87,5.5-24.16l0-2,.42.6c3.25,5.64.64,18.83-5.17,26.14C395.92,107.81,393.28,109.39,390.8,109.39Z" style="fill:#18D818"></path><path d="M390.93,119.26a7.07,7.07,0,0,1-4.31-1.7c-3.84-3-7-12.11-5.35-23.26,1.33-8.9,4-13.33,4.11-13.51l.74.5s-2.56,4.47-3.86,13.16c-1.62,10.77,1.36,19.54,5,22.32a5.53,5.53,0,0,0,4.61,1.39c2.44-.51,5.44-2.12,8.05-6.88,4.68-8.55,4.67-21.39,3.63-29.66l1-.13c1.06,8.43,1.1,21.59-3.69,30.36-2.76,5-6,6.72-8.77,7.29A5.33,5.33,0,0,1,390.93,119.26Z" style="fill:#18D818"></path><path d="M383.82,148.73a14,14,0,0,1-2.73.71c-4.12.73-8.25.94-12.4,1.29-.6.05-1.32.18-1.56.74s.32,1.34.91,1.74c2.52,1.72,9.69,3.38,19,3.38a55.14,55.14,0,0,0,10.1-1c3.15-.59,8.66-1.82,15.78-3.91,5.31-1.57,10.54-3.4,15.75-5.3,3.77-1.38,8-2.67,11.37-5,.39-.27.93-.62,1.08-1.09,2.72-6.47-5-25.16-8.27-33.77-5.82-15.19-10.4-22.17-17.64-21.9,0,0-4.05,5.6-1.26,15.19,2.25,7.75,8,20.94,11.67,31.12-5.65,2.63-11.17,5.51-16.85,8-2.58,1.16-7.6,4.06-12.08,3.92" style="fill:#9e5d55"></path><path d="M413.54,82.47s6.4-.65,9.64,2.17S433.25,102.18,436.9,116a30.51,30.51,0,0,1-15.48,7.7l-8.79-23.83S408.25,88.81,413.54,82.47Z" style="fill:#37474f"></path><g id="freepik--money--inject-1--inject-4"><polygon points="347.26 148.54 377.83 130.88 393.12 139.71 362.55 157.36 347.26 148.54" style="fill:#18D818"></polygon><path d="M353.22,147.48,376,134.33a5.52,5.52,0,0,0,3.17,0l8,4.61a1.23,1.23,0,0,0,0,1.83l-22.78,13.15a5.52,5.52,0,0,0-3.17,0l-8-4.61a1.23,1.23,0,0,0,0-1.83m-1.2,0a1,1,0,0,1,0,1.93l9.1,5.26a3.67,3.67,0,0,1,3.35,0l23.89-13.8a1,1,0,0,1,0-1.93l-9.1-5.26a3.73,3.73,0,0,1-3.35,0L352,147.43Z" style="opacity:0.30000000000000004"></path><g style="opacity:0.30000000000000004"><path d="M374.76,146.76a10.08,10.08,0,0,1-9.14,0c-2.52-1.45-2.52-3.82,0-5.28a10.15,10.15,0,0,1,9.14,0C377.28,142.94,377.28,145.31,374.76,146.76ZM366.48,142c-2,1.18-2,3.1,0,4.28a8.22,8.22,0,0,0,7.42,0c2-1.18,2-3.1,0-4.28A8.22,8.22,0,0,0,366.48,142Z"></path></g><polygon points="347.26 148.54 347.26 152.25 362.55 161.08 362.55 157.36 347.26 148.54" style="fill:#18D818"></polygon><g style="opacity:0.2"><polygon points="347.26 148.54 347.26 152.25 362.55 161.08 362.55 157.36 347.26 148.54"></polygon></g><polygon points="362.55 158.19 357.72 155.51 362.55 158.42 362.55 158.19" style="opacity:0.30000000000000004"></polygon><polygon points="347.26 150.3 348.87 151.32 347.26 150.49 347.26 150.3" style="opacity:0.30000000000000004"></polygon><polygon points="347.26 151.19 355.31 155.97 347.26 151.46 347.26 151.19" style="opacity:0.30000000000000004"></polygon><polygon points="362.55 159.08 354.5 154.58 362.55 159.37 362.55 159.08" style="opacity:0.30000000000000004"></polygon><polygon points="362.55 161.08 393.12 143.43 393.12 139.71 362.55 157.36 362.55 161.08" style="fill:#18D818"></polygon><g style="opacity:0.1"><polygon points="362.55 161.08 393.12 143.43 393.12 139.71 362.55 157.36 362.55 161.08"></polygon></g><g style="opacity:0.30000000000000004;mix-blend-mode:multiply"><polygon points="362.55 158.19 364.16 157.36 362.55 158.42 362.55 158.19"></polygon></g><g style="opacity:0.30000000000000004;mix-blend-mode:multiply"><polygon points="362.55 159.08 370.64 154.55 362.55 159.37 362.55 159.08"></polygon></g><g style="opacity:0.30000000000000004;mix-blend-mode:multiply"><polygon points="393.12 141.46 387.49 144.82 393.12 141.68 393.12 141.46"></polygon></g><g style="opacity:0.30000000000000004;mix-blend-mode:multiply"><polygon points="393.12 142.4 389.9 144.36 393.12 142.6 393.12 142.4"></polygon></g></g><path d="M396.66,142.93c-2.74-.09-5.35-.93-8-1.48a64.44,64.44,0,0,0-8.4-1c-1-.07-1.25.79-.95,1.62a2.79,2.79,0,0,0,.54.85,9.56,9.56,0,0,0,3.54,2.25,10.79,10.79,0,0,1,2.1,1c.49.36.77.79.44,1.3a5,5,0,0,1-2.09,1.3" style="fill:#9e5d55"></path><path d="M310,159.46c18.4-3.63,12.47-16.31,30.87-20l12.82,9.88c-16.73.46-13.38,14.53-30,15.49Z" style="fill:#18D818"></path><path d="M310,159.46c18.4-3.63,12.47-16.31,30.87-20l12.82,9.88c-16.73.46-13.38,14.53-30,15.49Z" style="opacity:0.1"></path><path d="M317.82,158.93C327,154,327.36,147,336.59,142.12a8.08,8.08,0,0,0,3.53.33L347,147.5a1.43,1.43,0,0,0-.85.69.82.82,0,0,0,.11.83c-11.22,3.51-7.83,10.59-19.06,14.09a4.42,4.42,0,0,0-3.52-.15L317,160.17a1.6,1.6,0,0,0,.88-.6.48.48,0,0,0-.09-.64m-1.3,0c.81.35.48,1-1,1.24l8,3.32a3.82,3.82,0,0,1,3.29,0c12.34-3.28,8.29-11,20.62-14.25-.79-.57-.49-1.32.91-1.54l-7.76-5.79a5.63,5.63,0,0,1-3.87-.43c-10.23,5-10,12.47-20.24,17.48Z" style="opacity:0.30000000000000004"></path><g style="opacity:0.30000000000000004"><path d="M336,155.6a5.89,5.89,0,0,1-6.89,1.3c-2.17-1.13-2.53-3.71-1-5.87a5.21,5.21,0,0,1,6.9-1.31A3.85,3.85,0,0,1,336,155.6Zm-7.17-4.14a3.15,3.15,0,0,0,.88,4.79,4.66,4.66,0,0,0,5.54-1.09,3.14,3.14,0,0,0-.87-4.78A4.22,4.22,0,0,0,328.82,151.46Z"></path></g><path d="M360.59,118.05c-4.42,2.89-10.19,6.58-12.89,8.25s-7.07,4.52-10.63,6.73a81.39,81.39,0,0,0-9.58,6.64c-2.39,2-5.2,4.31-7.55,6.34-1.69,1.46-3.57,2.68-5.25,4.15a1.94,1.94,0,0,0-.86,1.49,1.79,1.79,0,0,0,.9,1.19,10,10,0,0,0,7.55,1.28,17.29,17.29,0,0,0,7-3.47c1.6-1.24,3.14-2.76,5.05-3.5a1.61,1.61,0,0,1-.28,1.27c-.24.38-.55.71-.82,1.07a5.59,5.59,0,0,0-1.13,3,2.86,2.86,0,0,0,.16,1.36,1.51,1.51,0,0,0,1,.91,2.05,2.05,0,0,0,2-1.11,28.58,28.58,0,0,1,3.73-4.05c1.74-1.79,2.74-4,4.1-6.09,1.06-1.61,2.7-2.27,4.4-3.06,2.19-1,4.42-1.95,6.66-2.87,8.63-3.54,14.68-6,14.68-6Z" style="fill:#9e5d55"></path></g></g></svg>