<svg xmlns="http://www.w3.org/2000/svg" viewBox="0 0 500 500"><g id="freepik--Character--inject-2"><g id="freepik--group--inject-2"><path d="M188.63,400c4.22,0,11.61-18.46,17-19.26s7.25,1.59,10.94,3.7,13.45-1.11,19-3.85,12.33-6.72,17.51-2.89,7.55,6.47,9.39,7.26,3.43.8,6.33.8,5-1.59,7.8,0,4.86,3.53,7.5,3.48,9.31-1.46,9.67.43,2.46,3.21,4,4,12.83.36,15.12,2.95,12.15,5.93,13.94,9,9.71,8.25,9.71,8.25-109.55,2.32-130.34,2.4S188.63,400,188.63,400Z" style="fill:#18D818"></path><path d="M188.63,400c4.22,0,11.61-18.46,17-19.26s7.25,1.59,10.94,3.7,13.45-1.11,19-3.85,12.33-6.72,17.51-2.89,7.55,6.47,9.39,7.26,3.43.8,6.33.8,5-1.59,7.8,0,4.86,3.53,7.5,3.48,9.31-1.46,9.67.43,2.46,3.21,4,4,12.83.36,15.12,2.95,12.15,5.93,13.94,9,9.71,8.25,9.71,8.25-109.55,2.32-130.34,2.4S188.63,400,188.63,400Z" style="opacity:0.30000000000000004;isolation:isolate"></path><path d="M264.42,332.91s14,4.75,29.35,22.54l-2.62,9.25S276.33,344,267.72,339Z" style="fill:#18D818"></path><path d="M264.42,332.91s14,4.75,29.35,22.54l-2.62,9.25S276.33,344,267.72,339Z" style="opacity:0.30000000000000004;isolation:isolate"></path><path d="M269.09,337.48s10.06,10.88,15,33.83l-6.73,6.88s-3.11-25.28-8.28-33.78Z" style="fill:#18D818"></path><path d="M269.09,337.48s10.06,10.88,15,33.83l-6.73,6.88s-3.11-25.28-8.28-33.78Z" style="opacity:0.2;isolation:isolate"></path><path d="M278,203.9l-3.56-11.21s-2.46-.91-2.85-3.11S280.14,176,280.14,176s4.88,4.59,5.67,6.17-4.74,9.63-4.74,9.63l2.5,7.47Z" style="fill:#b97964"></path><path d="M266.69,261s14-16.39,16.62-23.24-7.83-40.51-7.83-40.51l7-3.52L287,204.56s2.9-.26,5.8,3.43,14.24,22.87,13.72,37-22.42,39.48-36.93,43.69Z" style="fill:#18D818"></path><path d="M306.52,245c-.33,8.71-8.76,21.68-18.59,31.34-6.12,6-12.78,10.74-18.34,12.35l-.79-7.55L266.69,261s14-16.39,16.62-23.24-7.83-40.51-7.83-40.51l7-3.52,2.29,5.53,2.19,5.28s2.9-.26,5.8,3.43S307,230.86,306.52,245Z" style="fill:#fff;opacity:0.4;isolation:isolate"></path><path d="M287.93,276.35c-6.12,6-12.78,10.74-18.34,12.35l-.79-7.55A38,38,0,0,0,287.93,276.35Z" style="opacity:0.2;isolation:isolate"></path><polygon points="287 204.56 281.33 206.45 284.81 199.28 287 204.56" style="opacity:0.2;isolation:isolate"></polygon><path d="M216.24,212.52l4.55-10.85s2.54-.69,3.12-2.84-7.26-14.32-7.26-14.32-5.28,4.13-6.21,5.64,3.87,10,3.87,10l-3.17,7.22Z" style="fill:#b97964"></path><path d="M249.62,413.84c.8-8.43,1.6-17.79,2.32-26.87,2.6,7,4.61,16.35,6.18,26.87H284.3c-3.23-36.28-11.79-59.49-14.14-72.33L227.28,345c-.06,5.4-5.51,41.6-7.34,68.82Z" style="fill:#263238"></path><path d="M251.94,387a115,115,0,0,1,4.81,18.61c1.2-16.46-3.61-33.93-3.61-33.93Z" style="opacity:0.2;isolation:isolate"></path><path d="M263.46,149.88l-43.09,6.63a13.23,13.23,0,0,0-11.06,15.1l4.15,27,26.17-4,16.92-2.6,26.16-4-4.16-27A13.22,13.22,0,0,0,263.46,149.88Z" style="fill:#18D818"></path><path d="M239.63,194.57l-26.17,4-4.15-27a13.23,13.23,0,0,1,11.06-15.1h0a13.24,13.24,0,0,1,15.1,11.07Z" style="opacity:0.2;isolation:isolate"></path><path d="M215.05,196.44l-3.87-25.12a11.34,11.34,0,0,1,22.42-3.45L237.47,193Z" style="opacity:0.2;isolation:isolate"></path><rect x="239.4" y="168.28" width="39.81" height="21.01" transform="translate(-24.2 41.56) rotate(-8.76)" style="opacity:0.2;isolation:isolate"></rect><path d="M276.68,161.23l.47,3-39.34,6.06-.46-3a13.25,13.25,0,0,0-15.1-11.07l39.33-6.06A13.24,13.24,0,0,1,276.68,161.23Z" style="opacity:0.2;isolation:isolate"></path><rect x="208" y="167.47" width="72.35" height="3" rx="0.74" transform="translate(-22.88 39.14) rotate(-8.76)" style="fill:#18D818"></rect><path d="M279.81,162.68l.24,1.57a.7.7,0,0,1-.59.8l-70.11,10.8a.69.69,0,0,1-.8-.59l-.25-1.57a.71.71,0,0,1,.59-.81L279,162.08A.71.71,0,0,1,279.81,162.68Z" style="fill:#fff;opacity:0.2;isolation:isolate"></path><path d="M236.73,169.31l.24,1.57a.69.69,0,0,1-.59.8l-27,4.17a.69.69,0,0,1-.8-.59l-.25-1.57a.71.71,0,0,1,.59-.81l27-4.16A.71.71,0,0,1,236.73,169.31Z" style="opacity:0.2;isolation:isolate"></path><path d="M261.07,176.55l-.3.06a3.11,3.11,0,0,1-.95-6.13l.31,0a3.14,3.14,0,0,0,.94,6.1Z" style="fill:#fff;opacity:0.2;isolation:isolate"></path><path d="M263.74,173a2.88,2.88,0,1,1-3.31-2.63A3,3,0,0,1,263.74,173Z" style="fill:#fff;opacity:0.4;isolation:isolate"></path><path d="M261.48,172.48a.72.72,0,1,0-1.42.22.71.71,0,0,0,.59.59l.12,1.79.81-.12-.43-1.77A.7.7,0,0,0,261.48,172.48Z" style="opacity:0.2;isolation:isolate"></path><path d="M216.58,264.3s4,47.56,11.5,73.18l40.72-2.37s4.84-47.05-2.11-74.09C266.58,260.58,252.76,283.31,216.58,264.3Z" style="fill:#18D818"></path><path d="M216.58,264.3s4,47.56,11.5,73.18l40.72-2.37s4.84-47.05-2.11-74.09C266.58,260.58,252.76,283.31,216.58,264.3Z" style="fill:#fff;opacity:0.4;isolation:isolate"></path><path d="M226.14,269.44s1.94,13.87-5.55,25.71c0,0-36.25-27.22-34.4-50.4,1.44-18,18-32.64,21.56-32.66l5.93-11.68,6.91,4.55s-12.05,31.79-11.66,36.26S226.14,269.44,226.14,269.44Z" style="fill:#18D818"></path><path d="M225,284.77h0a36.16,36.16,0,0,1-4.4,10.38,144.43,144.43,0,0,1-15-13.39c-9.75-10-20.48-24.13-19.45-37,1.44-18,18-32.64,21.56-32.66l3.08-6.06,2.85-5.62,6.91,4.55s-12.05,31.79-11.66,36.26,17.21,28.22,17.21,28.22A44.06,44.06,0,0,1,225,284.77Z" style="fill:#fff;opacity:0.4;isolation:isolate"></path><path d="M225,284.77a36.16,36.16,0,0,1-4.4,10.38,144.43,144.43,0,0,1-15-13.39A45.8,45.8,0,0,0,225,284.77Z" style="opacity:0.2;isolation:isolate"></path><path d="M213.68,214.56l-5.93-2.47,3.08-6.06A18.51,18.51,0,0,1,213.68,214.56Z" style="opacity:0.2;isolation:isolate"></path><path d="M234.18,271.53c3.95,3.59,16.21,16.92,16.21,16.92s3.46-16.31,2.19-18.2c-3.55-.59-5.28-2.25-6-4.37a10.48,10.48,0,0,1-.36-4.07,22.42,22.42,0,0,1,.3-2.27l-12-8.86C236.13,256.53,238.05,267.29,234.18,271.53Z" style="fill:#b97964"></path><path d="M236,256.32c.48,7.17,7.68,9.15,10.57,9.56a10.48,10.48,0,0,1-.36-4.07Z" style="opacity:0.2;isolation:isolate"></path><path d="M232.78,255.89c-.8-2.73-5.66-5.07-5.66-5.07s-.05.1-.13.29a8.48,8.48,0,0,0-3.85,4.88c-.9,2.87,1,7.7,1,7.7a9.34,9.34,0,0,0,4.14-4.23,20.94,20.94,0,0,0,3.93,3.34A9.39,9.39,0,0,0,232.78,255.89Z" style="fill:#18D818"></path><path d="M232.78,255.89c-.8-2.73-5.66-5.07-5.66-5.07s-.05.1-.13.29a8.48,8.48,0,0,0-3.85,4.88c-.9,2.87,1,7.7,1,7.7a9.34,9.34,0,0,0,4.14-4.23,20.94,20.94,0,0,0,3.93,3.34A9.39,9.39,0,0,0,232.78,255.89Z" style="opacity:0.2;isolation:isolate"></path><path d="M240.63,229s9.36,5.15,7.84,13.28c-1.34,7.2-15.64-7.92-15.64-7.92Z" style="fill:#263238"></path><path d="M242.07,260.52a10.13,10.13,0,0,0,11.16-5.15,11.26,11.26,0,0,0,1.07-8.24c-.09-.38-.21-.76-.34-1.15-2.57-7-10.11-16.28-18.43-14.57A11,11,0,0,0,229,249C233.87,255.38,236.41,259.37,242.07,260.52Z" style="fill:#b97964"></path><path d="M240.41,244.07c.32.56.94.79,1.3.55s.34-.87,0-1.42-.95-.79-1.3-.55S240.05,243.52,240.41,244.07Z" style="fill:#263238"></path><path d="M246.56,240c.32.57.95.79,1.3.56s.34-.88,0-1.42-.95-.79-1.31-.55S246.22,239.45,246.56,240Z" style="fill:#263238"></path><path d="M244.78,241.54a23.13,23.13,0,0,0,5.71,2.91,3.81,3.81,0,0,1-2.29,2.24Z" style="fill:#a24e3f"></path><path d="M237.17,243.35a.4.4,0,0,0,.23-.33,3.1,3.1,0,0,1,1.33-2.44.38.38,0,0,0,.14-.52.38.38,0,0,0-.52-.14h0a3.85,3.85,0,0,0-1.72,3.05.39.39,0,0,0,.35.41h0A.57.57,0,0,0,237.17,243.35Z" style="fill:#263238"></path><path d="M247.79,236.08A.37.37,0,0,0,248,236a.39.39,0,0,0-.13-.53h0a3.81,3.81,0,0,0-3.5-.26.37.37,0,0,0-.17.51h0a.38.38,0,0,0,.51.17h0a3.12,3.12,0,0,1,2.77.25A.38.38,0,0,0,247.79,236.08Z" style="fill:#263238"></path><path d="M228.36,237.36l2.45,2.59a2.64,2.64,0,0,0,.91,3.46c2.69,1.72,4.08,6.44,3.33,9.28,0,0-.82-1-1.52-.11s2.66,2.83,3.37,5.6c0,0-2.19.51-6.17-3.18-4.93-4.58-8.62-8.5-9-11.32Z" style="fill:#263238"></path><path d="M229.76,256.39a7.61,7.61,0,0,0,5.79.78c2.59-.7,2.51-3.34.65-5.07-1.66-1.53-5-3.07-7.08-1.41S227.63,255.12,229.76,256.39Z" style="fill:#b97964"></path><path d="M245.1,232.26s-19.39,3.79-17.91,19.59c0,0-11.15-7.62-3.6-19.27C227.86,226,240,225.16,245.1,232.26Z" style="fill:#18D818"></path><path d="M235.12,249.45s1.95,1.93,3.51,2.06,4-3.91,9.21-3.18c0,0,.91-2.18,2.61-2s2.73-1.48,2.07-3.48c0,0,3.07.31,2.5,1.68-.49,1.18.65,2.1,1.3,3a2.63,2.63,0,0,1,.69,1.64c0,.89-.53,1.69-.05,2.56s1.6,1.54,1.66,2.7-1,2.06-1.74,2.92a5.4,5.4,0,0,0-1.48,4.21c.35,2.06-2.38,2.75-3.85,2.05-1.05-.49-1.91-.93-3.06-.46a7.76,7.76,0,0,1-1.55.56,2.26,2.26,0,0,1-2.22-.94c-.46-.63-.6-1.15-1.52-1.13-1.78,0-1.49,1.45-3.38.1s-.51-3.05-1.21-4.4-.79-.6-2.5-2S235.12,249.45,235.12,249.45Z" style="fill:#263238"></path><path d="M235.12,249.45s1.95,1.93,3.51,2.06,4-3.91,9.21-3.18c0,0,.91-2.18,2.61-2s2.73-1.48,2.07-3.48c0,0,3.07.31,2.5,1.68-.49,1.18.65,2.1,1.3,3a2.63,2.63,0,0,1,.69,1.64c0,.89-.53,1.69-.05,2.56s1.6,1.54,1.66,2.7-1,2.06-1.74,2.92a5.4,5.4,0,0,0-1.48,4.21c.35,2.06-2.38,2.75-3.85,2.05-1.05-.49-1.91-.93-3.06-.46a7.76,7.76,0,0,1-1.55.56,2.26,2.26,0,0,1-2.22-.94c-.46-.63-.6-1.15-1.52-1.13-1.78,0-1.49,1.45-3.38.1s-.51-3.05-1.21-4.4-.79-.6-2.5-2S235.12,249.45,235.12,249.45Z" style="fill:#fff;opacity:0.1;isolation:isolate"></path><path d="M249.49,249a21.33,21.33,0,0,0,.66,3.05c-.16.08-.33.17-.5.24-2.26,1-3.65.79-4.52.19a3.28,3.28,0,0,1-1-1.17,3.24,3.24,0,0,1-.3-.82,11.83,11.83,0,0,0,4.87-1.14C249.2,249.16,249.49,249,249.49,249Z" style="fill:#263238"></path><path d="M248.72,249.36l.17.9c-2.13,1-3.77,1.4-4.74,1.06a3.24,3.24,0,0,1-.3-.82A11.83,11.83,0,0,0,248.72,249.36Z" style="fill:#fff"></path><path d="M249.65,252.3c-2.26,1-3.65.79-4.52.19a8,8,0,0,1,2.75-.67A3,3,0,0,1,249.65,252.3Z" style="fill:#de5753"></path><path d="M253.64,268.91s2.41,15-1.1,27.3c0,0-14.76-14.07-20.39-25.76l-8.23-4.85s3.05,25.86-3.33,39.84l2.34,22.36,12,4.15s15.73-7.13,19.53-15.7a141.91,141.91,0,0,0,12.25,11.55l6.73-5.61-1.85-25.45S263,274.46,263,264.83Z" style="fill:#18D818"></path><path d="M228.08,337.48l41-3.57,1.59,7.19L223,365.7A234.47,234.47,0,0,0,228.08,337.48Z" style="fill:#18D818"></path><circle cx="253.02" cy="301.64" r="1.43" style="opacity:0.30000000000000004;isolation:isolate"></circle><circle cx="254.5" cy="310.69" r="1.43" style="opacity:0.30000000000000004;isolation:isolate"></circle><path d="M131.47,419H365.86s-5.74-12.57-16.35-12.68-11.26-10.11-18.29-12.43-15.47.63-19.69,3.64-4.47,3.71-9.89,2-13.44-1.5-17.34,0-7.85,5.39-10.88,6.34-10.07,2.33-13.37,1-5.24-1.79-8.53.65-5.69,6.46-12.4,5.5-22-12.89-28.07-12.46-6.6-7.27-11.35-9-24.79-3.47-27.43,0c-3,3.9-7.94,13.83-13.34,13.65-2-.07-4.12-.52-5.79.54-1.2.77-1.94,2.23-3.31,2.62a8,8,0,0,1-3-.15c-1-.09-2.2.21-2.51,1.16-1.6,4.92-.75,4.05-5.45,5.85C137.28,415.93,132.92,419,131.47,419Z" style="fill:#18D818"></path><path d="M198.25,176.46s-6.85-28.24,22.68-35.1c0,0-10.49-2.11-13.58-22.15,0,0,3.56,20.64-2.77,21.89-5.26,1-21.81-17.69-21.81-17.69s17.77,21.66,14.56,27.58c-2,3.74-31.25,1.43-31.25,1.43s27,5.07,27.43,9.91-15.76,9.55-15.76,9.55,14.31-3.57,15.76-.8-6.33,7.7-6.33,7.7S195.09,173.05,198.25,176.46Z" style="fill:#18D818"></path><path d="M290.18,164.61s.11-29.06-30.21-28.87c0,0,9.72-4.49,8.07-24.7,0,0,1.32,20.9,7.77,20.65,5.36-.22,17.11-22.27,17.11-22.27s-12.25,25.19-7.76,30.2c2.84,3.17,30.73-5.86,30.73-5.86s-25.12,11.2-24.38,16,17.55,5.63,17.55,5.63-14.75-.15-15.51,2.88,7.94,6,7.94,6S292.46,160.56,290.18,164.61Z" style="fill:#18D818"></path><path d="M198.25,176.46s-6.85-28.24,22.68-35.1c0,0-10.49-2.11-13.58-22.15,0,0,3.56,20.64-2.77,21.89-5.26,1-21.81-17.69-21.81-17.69s17.77,21.66,14.56,27.58c-2,3.74-31.25,1.43-31.25,1.43s27,5.07,27.43,9.91-15.76,9.55-15.76,9.55,14.31-3.57,15.76-.8-6.33,7.7-6.33,7.7S195.09,173.05,198.25,176.46Z" style="fill:#fff;opacity:0.7000000000000001;isolation:isolate"></path><path d="M290.18,164.61s.11-29.06-30.21-28.87c0,0,9.72-4.49,8.07-24.7,0,0,1.32,20.9,7.77,20.65,5.36-.22,17.11-22.27,17.11-22.27s-12.25,25.19-7.76,30.2c2.84,3.17,30.73-5.86,30.73-5.86s-25.12,11.2-24.38,16,17.55,5.63,17.55,5.63-14.75-.15-15.51,2.88,7.94,6,7.94,6S292.46,160.56,290.18,164.61Z" style="fill:#fff;opacity:0.7000000000000001;isolation:isolate"></path></g></g></svg>